<svg
   width="54.954"
   height="55"
   viewBox="0 0 54.954 55"
   version="1.1"
   id="svg1"
   xmlns="http://www.w3.org/2000/svg"
   xmlns:svg="http://www.w3.org/2000/svg">
  <defs
     id="defs1">
    <clipPath
       clipPathUnits="userSpaceOnUse"
       id="clipPath134">
      <path
         d="M 0,1080 H 1080 V 0 H 0 Z"
         transform="translate(-578.82811,-1019.7861)"
         id="path134" />
    </clipPath>
  </defs>
  <g
     id="layer1">
    <path
      stroke="red"
       id="path133"
       d="m 0,0 c -0.134,-0.146 -0.265,-0.294 -0.395,-0.442 -0.124,-0.141 -0.248,-0.282 -0.368,-0.424 -0.172,-0.205 -0.334,-0.416 -0.503,-0.623 -0.195,-0.238 -0.374,-0.488 -0.554,-0.736 -0.097,-0.13 -0.196,-0.26 -0.289,-0.393 -0.126,-0.181 -0.246,-0.366 -0.369,-0.55 -0.086,-0.131 -0.174,-0.26 -0.258,-0.393 -0.121,-0.188 -0.236,-0.379 -0.351,-0.571 -0.078,-0.131 -0.157,-0.261 -0.232,-0.391 -0.116,-0.199 -0.226,-0.399 -0.334,-0.601 -0.069,-0.126 -0.136,-0.252 -0.202,-0.38 -0.11,-0.21 -0.216,-0.421 -0.32,-0.634 -0.057,-0.116 -0.111,-0.234 -0.167,-0.352 -0.105,-0.227 -0.211,-0.454 -0.309,-0.684 -0.038,-0.089 -0.074,-0.178 -0.111,-0.266 -0.497,-1.188 -0.904,-2.414 -1.217,-3.669 -0.017,-0.068 -0.035,-0.133 -0.051,-0.2 -0.068,-0.28 -0.128,-0.561 -0.187,-0.844 -0.016,-0.083 -0.034,-0.166 -0.051,-0.25 -0.054,-0.282 -0.104,-0.564 -0.149,-0.848 -0.013,-0.079 -0.024,-0.159 -0.036,-0.238 -0.045,-0.294 -0.085,-0.589 -0.119,-0.886 -0.006,-0.053 -0.011,-0.105 -0.016,-0.158 -0.15,-1.395 -0.187,-2.811 -0.101,-4.238 0.226,-3.779 -0.177,-7.568 -1.159,-11.224 l -0.402,-1.499 -0.112,-0.419 c -0.868,-3.237 -3.398,-5.766 -6.636,-6.632 l -1.093,-0.293 c -3.202,-0.856 -6.502,-1.211 -9.811,-1.178 -3.33,0.448 -6.804,0.242 -10.245,-0.722 -4.291,-1.202 -8.011,-3.436 -10.977,-6.354 -6.5,-6.31 -9.419,-15.896 -6.78,-25.225 3.483,-12.318 15.454,-19.94 27.78,-18.329 3.214,0.025 6.418,-0.395 9.524,-1.237 l 1.499,-0.405 0.419,-0.114 c 3.235,-0.876 5.757,-3.412 6.616,-6.653 l 0.289,-1.092 c 1.024,-3.863 1.326,-7.866 1.085,-11.855 -0.165,-2.754 0.116,-5.58 0.902,-8.386 3.903,-13.932 18.662,-21.896 32.555,-17.303 12.432,4.111 19.77,17.218 16.778,29.967 -2.137,9.103 -8.837,15.826 -17.032,18.457 -1.283,0.413 -2.63,0.598 -3.979,0.598 H 8.641 c -7.283,0 -13.187,5.903 -13.187,13.187 v 20.192 c 0,7.283 5.904,13.187 13.187,13.187 h 20.193 c 7.282,0 13.187,-5.904 13.187,-13.187 L 41.96,-69.797 c -0.002,-0.322 0.017,-0.644 0.056,-0.965 0.066,-0.538 0.152,-1.417 0.207,-1.613 3.83,-13.668 18.107,-21.593 31.765,-17.55 13.024,3.855 20.793,17.492 17.459,30.659 -3.041,12.009 -14.071,19.763 -25.868,19.208 -3.876,-0.182 -7.76,0.157 -11.505,1.171 l -1.499,0.407 c -3.28,0.888 -5.898,3.361 -6.973,6.585 l -0.06,0.179 -0.471,1.777 c -0.965,3.639 -1.133,7.411 -0.904,11.169 0.004,0.062 0.004,0.124 0.007,0.187 0.015,0.282 0.029,0.565 0.034,0.85 v 0.037 c 0.009,0.539 -0.002,1.081 -0.028,1.625 -0.008,0.167 -0.013,0.333 -0.025,0.501 -0.012,0.193 -0.031,0.386 -0.049,0.58 -0.017,0.203 -0.037,0.406 -0.06,0.609 -0.021,0.179 -0.043,0.357 -0.067,0.535 -0.032,0.227 -0.066,0.452 -0.103,0.679 -0.026,0.161 -0.052,0.321 -0.082,0.482 -0.049,0.268 -0.105,0.536 -0.162,0.804 -0.027,0.12 -0.05,0.241 -0.077,0.362 -0.088,0.38 -0.184,0.759 -0.289,1.138 -0.003,0.01 -0.007,0.021 -0.01,0.03 -0.003,0.01 -0.005,0.021 -0.008,0.031 -0.055,0.193 -0.119,0.382 -0.178,0.574 -0.067,0.217 -0.13,0.435 -0.202,0.649 -0.065,0.194 -0.139,0.383 -0.209,0.575 -0.078,0.214 -0.152,0.432 -0.236,0.644 -0.073,0.186 -0.154,0.365 -0.232,0.548 -0.088,0.212 -0.175,0.427 -0.27,0.636 -0.081,0.179 -0.171,0.353 -0.256,0.531 -0.1,0.205 -0.195,0.413 -0.299,0.615 -0.091,0.176 -0.189,0.346 -0.284,0.519 -0.107,0.197 -0.212,0.396 -0.324,0.59 -0.1,0.172 -0.207,0.338 -0.312,0.508 -0.114,0.188 -0.226,0.378 -0.345,0.562 -0.111,0.169 -0.228,0.332 -0.341,0.499 -0.121,0.177 -0.239,0.357 -0.365,0.531 -0.12,0.165 -0.246,0.323 -0.369,0.485 -0.128,0.168 -0.252,0.34 -0.383,0.504 -0.129,0.162 -0.265,0.316 -0.397,0.473 -0.134,0.158 -0.264,0.32 -0.4,0.475 -0.138,0.156 -0.282,0.305 -0.423,0.457 -0.139,0.149 -0.275,0.301 -0.416,0.448 -0.145,0.147 -0.295,0.289 -0.443,0.434 -0.145,0.142 -0.288,0.288 -0.437,0.426 -0.149,0.14 -0.306,0.273 -0.459,0.409 -0.152,0.136 -0.303,0.275 -0.458,0.407 -0.157,0.133 -0.32,0.259 -0.48,0.387 -0.158,0.127 -0.313,0.258 -0.474,0.381 -0.163,0.125 -0.331,0.242 -0.496,0.364 -0.164,0.119 -0.326,0.242 -0.493,0.358 -0.165,0.115 -0.336,0.222 -0.504,0.333 -0.173,0.113 -0.343,0.23 -0.518,0.34 -0.168,0.105 -0.342,0.203 -0.513,0.304 -0.178,0.107 -0.356,0.217 -0.539,0.319 -0.171,0.096 -0.346,0.184 -0.519,0.276 -0.187,0.099 -0.372,0.201 -0.561,0.296 -0.174,0.087 -0.35,0.165 -0.525,0.248 -0.193,0.091 -0.386,0.186 -0.582,0.273 -0.176,0.077 -0.355,0.146 -0.532,0.22 -0.2,0.082 -0.398,0.169 -0.6,0.246 -0.177,0.069 -0.356,0.129 -0.535,0.193 -0.206,0.074 -0.41,0.152 -0.618,0.22 -0.179,0.06 -0.361,0.111 -0.54,0.166 -0.211,0.065 -0.421,0.132 -0.635,0.192 -0.182,0.051 -0.365,0.093 -0.547,0.14 -0.215,0.054 -0.43,0.112 -0.645,0.162 -0.187,0.042 -0.375,0.076 -0.563,0.114 -0.216,0.044 -0.43,0.091 -0.647,0.129 -0.19,0.034 -0.383,0.058 -0.575,0.088 -0.215,0.033 -0.431,0.07 -0.649,0.097 -0.194,0.025 -0.391,0.04 -0.586,0.06 -0.217,0.022 -0.433,0.049 -0.65,0.065 -0.2,0.016 -0.4,0.022 -0.599,0.033 -0.217,0.011 -0.432,0.026 -0.649,0.033 -0.202,0.005 -0.404,0.001 -0.606,0.002 -0.217,0 -0.434,0.005 -0.65,0 C 17.975,8.214 17.77,8.199 17.564,8.189 17.349,8.18 17.133,8.174 16.916,8.158 16.709,8.143 16.5,8.118 16.292,8.098 16.077,8.076 15.863,8.061 15.648,8.034 15.44,8.008 15.231,7.973 15.023,7.941 14.808,7.909 14.593,7.882 14.377,7.844 14.172,7.809 13.966,7.762 13.76,7.721 13.542,7.677 13.323,7.638 13.105,7.588 12.904,7.543 12.705,7.486 12.504,7.437 12.291,7.382 12.078,7.334 11.865,7.274 11.854,7.271 11.844,7.268 11.833,7.265 11.823,7.262 11.814,7.26 11.805,7.257 11.42,7.148 11.04,7.03 10.665,6.905 10.549,6.866 10.437,6.823 10.321,6.783 10.052,6.689 9.783,6.594 9.519,6.491 9.372,6.435 9.229,6.374 9.084,6.314 8.854,6.221 8.625,6.126 8.399,6.025 8.248,5.959 8.099,5.89 7.949,5.819 7.733,5.719 7.52,5.616 7.308,5.51 7.16,5.436 7.013,5.361 6.866,5.284 6.654,5.173 6.446,5.058 6.238,4.941 6.1,4.863 5.96,4.786 5.823,4.706 5.603,4.576 5.386,4.441 5.169,4.305 5.053,4.231 4.934,4.16 4.818,4.085 4.495,3.875 4.178,3.659 3.867,3.436 3.796,3.384 3.728,3.329 3.657,3.277 3.415,3.1 3.175,2.92 2.939,2.733 2.816,2.636 2.696,2.534 2.574,2.434 2.397,2.289 2.221,2.143 2.049,1.993 1.918,1.879 1.789,1.763 1.66,1.646 1.504,1.504 1.349,1.361 1.195,1.216 1.064,1.091 0.936,0.965 0.807,0.838 0.663,0.695 0.521,0.55 0.381,0.403 0.253,0.271 0.125,0.137 0,0"
       style="fill:white;fill-opacity:1;fill-rule:nonzero;stroke:none"
        transform="scale(0.37) rotate(90) translate(56 -9)"
       clip-path="url(#clipPath134)" />
  </g>
</svg>
